<?xml version="1.0" encoding="utf-8"?>
<!-- Svg Vector Icons : http://www.onlinewebfonts.com/icon -->
<!DOCTYPE svg PUBLIC "-//W3C//DTD SVG 1.1//EN" "http://www.w3.org/Graphics/SVG/1.1/DTD/svg11.dtd">
<svg version="1.1" xmlns="http://www.w3.org/2000/svg" xmlns:xlink="http://www.w3.org/1999/xlink" x="0px" y="0px" viewBox="0 0 1000 1000" enable-background="new 0 0 1000 1000" xml:space="preserve">
<metadata> Svg Vector Icons : http://www.onlinewebfonts.com/icon </metadata>
<g><g><g><path fill="white" d="M650.2,989.8h9.3h309.4c2.7,0,5.4-1.3,7.2-3.5c1.7-2.1,2.5-5,1.7-7.7l-57.2-256c-15.5-81.9-88.3-107.4-114.8-114c6.6-35.9,3.9-61.8-8.1-76.7c-5.8-7.3-12.8-10.6-18.2-12v-49.1l35.2-48.3c1.2-1.5,1.7-3.5,1.7-5.4V255.3c0-2.7-1.2-5.4-3.5-7.2l-38.8-31.7C715.1,25,568.7,10.1,525,10.1c-7.2,0-11.6,0.4-11.8,0.4h-24.5c0,0-190.1-20.7-259.9,206l-37.3,31.7c-2.1,1.7-3.3,4.3-3.3,7v161.7c0,1.9,0.6,3.9,1.7,5.4l35.2,48.3v48.9c-5.8,1.5-13.5,4.8-19.9,12.8c-12.2,15.1-15.1,40.8-8.7,75.9c-26.3,6.6-98.7,31.9-114,113.6L22.2,978.6c-0.6,2.7,0,5.6,1.7,7.9c1.7,2.1,4.4,3.5,7.1,3.5H336h9.3c5,0,9.3-4.1,9.3-9.3V786.5h128.9H519h131.2v194L650.2,989.8L650.2,989.8z M299.1,435.6V241.4c0-2.3,1-4.6,2.5-6.4c69.2-71.5,182.2-75,204.2-75h3.7h17.8c20.3,0,124.8,3.7,194.2,75c1.7,1.7,2.5,4.1,2.5,6.4v89.7c-5.6,6.8-11.8,13.1-18.5,19.1c-6.2,5.6-12.8,10.8-19.9,15.8c-32.7,22-72.1,34.2-113.2,35.7c-5.8-25.1-28.2-44.1-55.1-44.1c-31.1,0-56.6,25.3-56.6,56.6s25.3,56.6,56.6,56.6c22.4,0,41.5-13.1,50.8-32.1c49.9-0.8,97.8-15.1,137.4-41.7c0.2-0.2,0.6-0.4,0.8-0.6c6.2-4.3,12-8.7,17.6-13.3v52.2c0,0.6,0,1.4-0.2,1.9c-1.2,5.4-16.6,53.5-184,53.5h-21.5c-166.8,0-214.9-47-216.8-48.9C300.1,440.2,299.1,437.9,299.1,435.6z"/><path d="M426.2,188.7c-2.9-0.6-6.2-0.8-9.3,0.2c-69.6,22.4-92.4,47-94.9,49.7c-1.5,1.7-2.7,3.7-3.5,5.6c-0.8,2.1-1.2,4.2-1.2,6.6v73.8c0,10.2,8.3,18.5,18.6,18.5c10.2,0,18.6-8.3,18.6-18.5V259c8.9-6.8,30.7-21.1,73.8-35c9.7-3.1,15.1-13.5,12-23.2C438,194.3,432.4,189.8,426.2,188.7z"/></g></g><g></g><g></g><g></g><g></g><g></g><g></g><g></g><g></g><g></g><g></g><g></g><g></g><g></g><g></g><g></g></g>
</svg>